<svg width="20" height="21" viewBox="0 0 20 21" fill="none" xmlns="http://www.w3.org/2000/svg">
<path fill-rule="evenodd" clip-rule="evenodd" d="M10 20.9323C4.48 20.9323 0 16.4623 0 10.9323C0 5.41225 4.48 0.932251 10 0.932251C15.53 0.932251 20 5.41225 20 10.9323C20 16.4623 15.53 20.9323 10 20.9323ZM13.19 14.6423C13.31 14.7123 13.44 14.7523 13.58 14.7523C13.83 14.7523 14.08 14.6223 14.22 14.3823C14.43 14.0323 14.32 13.5723 13.96 13.3523L10.4 11.2323V6.61225C10.4 6.19225 10.06 5.86225 9.65 5.86225C9.24 5.86225 8.9 6.19225 8.9 6.61225V11.6623C8.9 11.9223 9.04 12.1623 9.27 12.3023L13.19 14.6423Z" fill="white"/>
</svg>
