<svg width="24" height="25" viewBox="0 0 24 25" fill="none" xmlns="http://www.w3.org/2000/svg">
<path d="M19.7942 8.45213L12.8257 3.51688C12.331 3.16653 11.669 3.16653 11.1743 3.51688L4.20584 8.45213C3.44952 8.98777 3 9.85697 3 10.7838V20.075C3 21.6529 4.27919 22.9321 5.85714 22.9321H8C8.78898 22.9321 9.42857 22.2925 9.42857 21.5036V19.3607C9.42857 18.5717 10.0682 17.9321 10.8571 17.9321H13.1429C13.9318 17.9321 14.5714 18.5717 14.5714 19.3607V21.5036C14.5714 22.2925 15.211 22.9321 16 22.9321H18.1429C19.7208 22.9321 21 21.6529 21 20.075V10.7838C21 9.85698 20.5505 8.98777 19.7942 8.45213Z" fill="white"/>
</svg>
