<svg width="18" height="21" viewBox="0 0 18 21" fill="none" xmlns="http://www.w3.org/2000/svg">
<path fill-rule="evenodd" clip-rule="evenodd" d="M7 0.932129H11C12.1046 0.932129 13 1.82756 13 2.93213C13 4.0367 12.1046 4.93213 11 4.93213H7C5.89543 4.93213 5 4.0367 5 2.93213C5 1.82756 5.89543 0.932129 7 0.932129ZM3.50733 2.9624C3.50247 3.03509 3.5 3.10844 3.5 3.18236C3.5 4.97729 4.95507 6.43236 6.75 6.43236H11.25C13.0449 6.43236 14.5 4.97729 14.5 3.18236C14.5 3.10844 14.4975 3.0351 14.4927 2.96241C16.4694 3.2052 18 4.89003 18 6.93236V16.9324C18 19.1415 16.2091 20.9324 14 20.9324H4C1.79086 20.9324 0 19.1415 0 16.9324V6.93236C0 4.89003 1.53062 3.20519 3.50733 2.9624ZM4.25 8.93237C4.25 8.51816 4.58579 8.18237 5 8.18237H13C13.4142 8.18237 13.75 8.51816 13.75 8.93237C13.75 9.34659 13.4142 9.68237 13 9.68237H5C4.58579 9.68237 4.25 9.34659 4.25 8.93237ZM5 12.1824C4.58579 12.1824 4.25 12.5182 4.25 12.9324C4.25 13.3466 4.58579 13.6824 5 13.6824H13C13.4142 13.6824 13.75 13.3466 13.75 12.9324C13.75 12.5182 13.4142 12.1824 13 12.1824H5ZM4.25 16.9324C4.25 16.5182 4.58579 16.1824 5 16.1824H9C9.41421 16.1824 9.75 16.5182 9.75 16.9324C9.75 17.3466 9.41421 17.6824 9 17.6824H5C4.58579 17.6824 4.25 17.3466 4.25 16.9324Z" fill="white"/>
</svg>
