<svg width="22" height="22" viewBox="0 0 22 22" fill="none" xmlns="http://www.w3.org/2000/svg">
<path d="M11 10.9321H10.25C10.25 11.255 10.4566 11.5416 10.7628 11.6436L11 10.9321ZM11.75 5.93213C11.75 5.51792 11.4142 5.18213 11 5.18213C10.5858 5.18213 10.25 5.51792 10.25 5.93213H11.75ZM13.7628 12.6436C14.1558 12.7746 14.5805 12.5623 14.7115 12.1693C14.8425 11.7763 14.6301 11.3516 14.2372 11.2206L13.7628 12.6436ZM11.75 10.9321V5.93213H10.25V10.9321H11.75ZM10.7628 11.6436L13.7628 12.6436L14.2372 11.2206L11.2372 10.2206L10.7628 11.6436ZM20.25 10.9321C20.25 16.0408 16.1086 20.1821 11 20.1821V21.6821C16.9371 21.6821 21.75 16.8692 21.75 10.9321H20.25ZM11 20.1821C5.89137 20.1821 1.75 16.0408 1.75 10.9321H0.25C0.25 16.8692 5.06294 21.6821 11 21.6821V20.1821ZM1.75 10.9321C1.75 5.82349 5.89137 1.68213 11 1.68213V0.182129C5.06294 0.182129 0.25 4.99507 0.25 10.9321H1.75ZM11 1.68213C16.1086 1.68213 20.25 5.82349 20.25 10.9321H21.75C21.75 4.99507 16.9371 0.182129 11 0.182129V1.68213Z" fill="white" fill-opacity="0.81"/>
</svg>
