<svg width="21" height="22" viewBox="0 0 21 22" fill="none" xmlns="http://www.w3.org/2000/svg">
<path d="M7.80684 19.7035V16.6368C7.80682 15.8568 8.40927 15.223 9.1557 15.2177H11.8899C12.6399 15.2177 13.2478 15.8531 13.2478 16.6368V16.6368V19.7131C13.2477 20.3753 13.7535 20.9166 14.3871 20.9321H16.2099C18.027 20.9321 19.5 19.3928 19.5 17.494V17.494V8.76996C19.4903 8.02296 19.1547 7.32148 18.5886 6.86516L12.3547 1.61743C11.2626 0.703695 9.71009 0.703695 8.61797 1.61743L2.41139 6.87469C1.84319 7.32915 1.507 8.0318 1.5 8.77949V17.494C1.5 19.3928 2.97304 20.9321 4.79013 20.9321H6.61291C7.26223 20.9321 7.78861 20.3821 7.78861 19.7035V19.7035" stroke="white" stroke-opacity="0.81" stroke-width="1.5" stroke-linecap="round" stroke-linejoin="round"/>
</svg>
