<svg width="34" height="34" viewBox="0 0 34 34" fill="none" xmlns="http://www.w3.org/2000/svg">
<g filter="url(#filter0_d_4707_4656)">
<rect x="5" y="2.45996" width="20" height="20" rx="10" fill="#287EFF"/>
<g clip-path="url(#clip0_4707_4656)">
<path d="M15.616 17.5957C15.616 17.7165 15.616 17.8072 15.616 17.8978C15.6093 18.2402 15.3474 18.4987 15.0084 18.502C14.666 18.502 14.4008 18.2469 14.3941 17.9045C14.3941 17.8139 14.3941 17.7233 14.3941 17.6158C14.2699 17.6696 14.1827 17.7568 14.0853 17.824C13.8873 17.9582 13.6758 17.9918 13.4542 17.8877C13.0481 17.6998 12.9675 17.1459 13.3166 16.8673C13.6254 16.6189 13.9544 16.3906 14.2766 16.159C14.3606 16.0986 14.3941 16.0348 14.3941 15.9308C14.3908 15.1822 14.3908 14.4303 14.3908 13.6818C14.3908 13.6415 14.3908 13.6012 14.3908 13.5341C14.2699 13.6012 14.1692 13.6549 14.0719 13.7153C13.4878 14.0544 12.9071 14.3934 12.323 14.7291C12.2324 14.7794 12.1888 14.8432 12.182 14.9439C12.1485 15.2863 12.1082 15.6253 12.0746 15.9677C12.0646 16.0583 12.0545 16.1523 12.0243 16.2396C11.9236 16.5283 11.6383 16.6927 11.3227 16.639C11.0508 16.592 10.8293 16.3369 10.8293 16.0516C10.8293 15.8972 10.8528 15.7461 10.8662 15.5716C10.7856 15.6186 10.7185 15.6589 10.6514 15.6958C10.3325 15.8771 9.96325 15.7898 9.78534 15.4944C9.60408 15.1923 9.70478 14.8365 10.017 14.6351C10.0807 14.5948 10.2049 14.5746 10.1982 14.5042C10.1915 14.4236 10.064 14.4303 9.99346 14.3867C9.96661 14.3699 9.93304 14.3598 9.90283 14.3464C9.56715 14.1987 9.42617 13.8462 9.56715 13.524C9.70814 13.2017 10.0606 13.0675 10.3996 13.2118C10.7622 13.3696 11.1213 13.5273 11.4771 13.6918C11.5443 13.722 11.598 13.722 11.6651 13.6818C12.3297 13.2957 12.9977 12.9097 13.6657 12.527C13.7463 12.48 13.7463 12.4465 13.6657 12.3995C13.0011 12.0168 12.3398 11.6308 11.6785 11.2448C11.6013 11.2011 11.5376 11.2146 11.4671 11.2448C11.1079 11.4059 10.7487 11.5637 10.3862 11.7181C9.99346 11.8825 9.58729 11.6576 9.51009 11.2414C9.46645 10.9997 9.60743 10.7278 9.84241 10.607C9.94311 10.5566 10.0472 10.513 10.1512 10.4694C10.2116 10.4425 10.2284 10.419 10.1613 10.3821C10.1009 10.3485 10.0371 10.3116 9.97668 10.2713C9.68464 10.08 9.59736 9.7141 9.77527 9.42542C9.94982 9.1401 10.3123 9.04946 10.6111 9.21394C10.6279 9.22401 10.648 9.23744 10.6648 9.24415C10.7219 9.26765 10.7823 9.34821 10.8293 9.31465C10.8863 9.27436 10.8528 9.18373 10.8394 9.1166C10.7991 8.8682 10.8159 8.63659 11.0105 8.45197C11.1851 8.28077 11.3999 8.24049 11.6282 8.31434C11.8665 8.38819 12.0075 8.56274 12.0411 8.80442C12.0948 9.19045 12.1317 9.57647 12.1686 9.9625C12.1787 10.0733 12.2156 10.1438 12.3163 10.2008C12.9507 10.56 13.5784 10.9259 14.2095 11.2918C14.2632 11.322 14.3169 11.3522 14.3706 11.379C14.4008 11.332 14.3908 11.2951 14.3908 11.2582C14.3908 10.4996 14.3908 9.74095 14.3941 8.98569C14.3941 8.8917 14.3673 8.83128 14.2901 8.77757C13.9846 8.56274 13.6859 8.34119 13.3838 8.11965C13.0783 7.8981 13.0044 7.52886 13.2126 7.24019C13.4173 6.95151 13.7966 6.90116 14.1021 7.11934C14.1894 7.18312 14.2766 7.2469 14.3908 7.32746C14.3908 7.21669 14.3908 7.13277 14.3908 7.04549C14.3975 6.68297 14.6526 6.42114 15.0084 6.42114C15.3609 6.42114 15.616 6.68297 15.6193 7.04885C15.6193 7.13277 15.6193 7.21333 15.6193 7.31068C15.7435 7.25361 15.8275 7.16969 15.9214 7.10592C16.331 6.82059 16.8412 7.03542 16.9083 7.52886C16.9385 7.75712 16.8479 7.94846 16.6633 8.08944C16.3612 8.31434 16.0591 8.53924 15.7503 8.75743C15.6563 8.82456 15.616 8.89505 15.616 9.0159C15.6227 9.76445 15.6193 10.5164 15.6193 11.2649C15.6193 11.3992 15.6193 11.3992 15.7335 11.3354C16.3947 10.9561 17.0527 10.5734 17.7139 10.1975C17.8012 10.1471 17.8314 10.0867 17.8415 9.98935C17.8784 9.60333 17.9187 9.21394 17.9691 8.83128C18.016 8.47211 18.3148 8.25056 18.6773 8.2942C18.9929 8.33112 19.2211 8.63659 19.1875 8.97226C19.1808 9.05282 19.1708 9.13003 19.1641 9.21059C19.1607 9.25087 19.1372 9.30122 19.1775 9.32807C19.2144 9.35157 19.248 9.31129 19.2782 9.29115C19.4158 9.21059 19.5534 9.13674 19.7246 9.14345C19.9797 9.15352 20.208 9.31129 20.2886 9.54962C20.3725 9.79466 20.2919 10.0766 20.0905 10.2277C20.02 10.2814 19.9428 10.3217 19.869 10.3687C19.8421 10.3854 19.7985 10.3922 19.8052 10.4358C19.8085 10.4694 19.8455 10.4727 19.8723 10.4861C19.9562 10.5231 20.0402 10.56 20.1241 10.6003C20.4564 10.7614 20.5839 11.0971 20.443 11.4193C20.302 11.7315 19.963 11.8624 19.6306 11.7214C19.2748 11.5704 18.9224 11.416 18.5733 11.2548C18.4793 11.2112 18.4054 11.2179 18.3182 11.2683C17.6669 11.6476 17.0124 12.0235 16.3612 12.3995C16.2571 12.4599 16.2571 12.4767 16.3612 12.5338C17.0225 12.9131 17.6837 13.289 18.3417 13.6717C18.4189 13.7153 18.4793 13.7086 18.5531 13.675C18.8888 13.524 19.2278 13.3796 19.5635 13.2252C19.7817 13.1279 19.9932 13.1178 20.2013 13.242C20.406 13.3629 20.5101 13.5508 20.5034 13.7858C20.4967 14.0376 20.3725 14.2222 20.1442 14.333C20.0536 14.3766 19.9596 14.4135 19.869 14.4538C19.785 14.4874 19.7985 14.5209 19.8656 14.5579C19.916 14.5881 19.9663 14.6149 20.0167 14.6485C20.3154 14.8331 20.4094 15.1956 20.2382 15.491C20.067 15.7864 19.6944 15.8804 19.3856 15.7092C19.3587 15.6958 19.3352 15.6757 19.3084 15.6656C19.2648 15.6488 19.2245 15.585 19.1775 15.6186C19.1372 15.6488 19.1641 15.7126 19.1674 15.7629C19.1708 15.8536 19.1875 15.9475 19.1909 16.0382C19.1909 16.3571 18.9526 16.6256 18.6538 16.6458C18.3014 16.6692 18.016 16.4544 17.9758 16.1187C17.9254 15.7294 17.8851 15.3366 17.8482 14.9472C17.8381 14.8499 17.8012 14.7861 17.7173 14.7391C17.0594 14.3632 16.4048 13.9839 15.7469 13.6045C15.6294 13.5374 15.6261 13.5374 15.6261 13.6683C15.6261 14.4337 15.6261 15.2024 15.6261 15.9677C15.6261 16.0483 15.6529 16.0986 15.7167 16.1456C16.0289 16.3705 16.341 16.5954 16.6499 16.8237C16.868 16.9848 16.962 17.203 16.905 17.4715C16.8513 17.7199 16.6566 17.9012 16.3947 17.9448C16.2202 17.975 16.0658 17.918 15.9214 17.8172C15.8207 17.74 15.7301 17.6763 15.616 17.5957Z" fill="white"/>
<path d="M19.2379 12.423C19.2413 12.5539 19.1876 12.6244 19.1037 12.6613C18.7949 12.799 18.4827 12.9332 18.1739 13.0709C18.1168 13.0977 18.0698 13.0843 18.0195 13.0541C17.7106 12.8762 17.4052 12.6983 17.0964 12.5204C17.0124 12.4734 17.0158 12.4398 17.0964 12.3962C17.4052 12.2216 17.714 12.0437 18.0195 11.8624C18.0799 11.8255 18.1336 11.8289 18.1974 11.8557C18.4928 11.9866 18.7848 12.1142 19.0802 12.2451C19.1708 12.2887 19.2346 12.3492 19.2379 12.423Z" fill="white"/>
<path d="M10.7722 12.4599C10.7722 12.3592 10.8293 12.2954 10.9132 12.2551C11.2187 12.1175 11.5241 11.9866 11.8296 11.849C11.8833 11.8255 11.9336 11.8288 11.984 11.859C12.2962 12.0403 12.605 12.2216 12.9172 12.3995C12.9944 12.4431 12.991 12.4733 12.9172 12.517C12.605 12.6949 12.2928 12.8761 11.984 13.0574C11.9269 13.091 11.8766 13.0876 11.8195 13.0608C11.5208 12.9265 11.222 12.7989 10.9233 12.6647C10.8326 12.6277 10.7722 12.5673 10.7722 12.4599Z" fill="white"/>
<path d="M14.0081 14.8498C14.0081 15.0209 14.0047 15.1921 14.0081 15.3633C14.0081 15.4372 13.9846 15.4875 13.9241 15.5312C13.669 15.7158 13.4173 15.9004 13.1655 16.085C13.0782 16.1488 12.991 16.1891 12.8869 16.1287C12.7862 16.0716 12.7728 15.981 12.7862 15.8803C12.8198 15.548 12.8567 15.2156 12.8903 14.8833C12.897 14.833 12.9272 14.8028 12.9708 14.7793C13.283 14.6014 13.5918 14.4201 13.904 14.2388C13.9946 14.1851 14.0114 14.2254 14.0081 14.3093C14.0081 14.4906 14.0081 14.6685 14.0081 14.8498Z" fill="white"/>
<path d="M16.0021 10.0767C16.0021 9.90546 16.0054 9.73427 16.0021 9.56307C16.0021 9.48922 16.0222 9.43887 16.086 9.39524C16.3411 9.21062 16.5929 9.026 16.8446 8.83802C16.9285 8.77424 17.0158 8.73396 17.1232 8.79102C17.2239 8.84473 17.2407 8.93872 17.2306 9.03942C17.1971 9.37174 17.1601 9.70406 17.1266 10.0364C17.1199 10.0934 17.0863 10.1236 17.0393 10.1505C16.7305 10.3284 16.425 10.5063 16.1162 10.6842C16.0356 10.7312 16.0054 10.7144 16.0054 10.6204C16.0054 10.4358 16.0021 10.2546 16.0021 10.0767Z" fill="white"/>
<path d="M14.0081 10.0799C14.0081 10.2612 14.0048 10.4391 14.0081 10.6203C14.0081 10.7043 13.9813 10.7277 13.9041 10.6841C13.5919 10.5028 13.2831 10.3249 12.9676 10.147C12.9105 10.1135 12.8904 10.0665 12.8836 10.0027C12.8534 9.71066 12.8199 9.42198 12.7897 9.12994C12.7863 9.08966 12.7863 9.04603 12.7829 9.00575C12.7796 8.9084 12.8132 8.83455 12.9004 8.78756C12.9843 8.74392 13.0616 8.76742 13.1354 8.81777C13.3569 8.98225 13.5751 9.15344 13.8067 9.3045C13.9612 9.4052 14.0316 9.51933 14.0081 9.70395C13.9947 9.82815 14.0081 9.9557 14.0081 10.0799Z" fill="white"/>
<path d="M16.0021 14.8364C16.0021 14.6618 16.0054 14.4839 16.0021 14.3093C16.0021 14.2221 16.0222 14.1919 16.1095 14.2389C16.4183 14.4168 16.7271 14.5947 17.0359 14.7692C17.0964 14.8028 17.1199 14.8531 17.1266 14.9236C17.1568 15.209 17.1904 15.4976 17.2206 15.783C17.2273 15.8367 17.2306 15.8904 17.2273 15.9441C17.2172 16.1186 17.0494 16.216 16.905 16.1153C16.6164 15.9139 16.3377 15.7024 16.0524 15.4943C16.0054 15.4607 16.0054 15.4104 16.0054 15.36C16.0021 15.1855 16.0021 15.0109 16.0021 14.8364Z" fill="white"/>
</g>
</g>
<defs>
<filter id="filter0_d_4707_4656" x="0.294118" y="0.107019" width="32.9412" height="32.9412" filterUnits="userSpaceOnUse" color-interpolation-filters="sRGB">
<feFlood flood-opacity="0" result="BackgroundImageFix"/>
<feColorMatrix in="SourceAlpha" type="matrix" values="0 0 0 0 0 0 0 0 0 0 0 0 0 0 0 0 0 0 127 0" result="hardAlpha"/>
<feMorphology radius="0.588235" operator="dilate" in="SourceAlpha" result="effect1_dropShadow_4707_4656"/>
<feOffset dx="1.76471" dy="4.11765"/>
<feGaussianBlur stdDeviation="2.94118"/>
<feComposite in2="hardAlpha" operator="out"/>
<feColorMatrix type="matrix" values="0 0 0 0 0.804167 0 0 0 0 0.804167 0 0 0 0 0.804167 0 0 0 0.25 0"/>
<feBlend mode="normal" in2="BackgroundImageFix" result="effect1_dropShadow_4707_4656"/>
<feBlend mode="normal" in="SourceGraphic" in2="effect1_dropShadow_4707_4656" result="shape"/>
</filter>
<clipPath id="clip0_4707_4656">
<rect width="11" height="12.0775" fill="white" transform="translate(9.5 6.4212)"/>
</clipPath>
</defs>
</svg>
