<svg width="34" height="34" viewBox="0 0 34 34" fill="none" xmlns="http://www.w3.org/2000/svg">
<g filter="url(#filter0_d_4707_4652)">
<rect x="5" y="2.45996" width="20" height="20" rx="10" fill="#FF5959"/>
<path d="M9.5 13.835C9.5 12.6318 9.78646 11.5605 10.3594 10.6209C10.9323 9.68131 11.5625 8.89069 12.25 8.24902C12.9375 7.60736 13.5677 7.1174 14.1406 6.77915L15 6.27246V8.54121C15 8.96517 15.1432 9.30021 15.4297 9.54634C15.7161 9.79246 16.037 9.91575 16.3922 9.91621C16.587 9.91621 16.7733 9.87611 16.9511 9.7959C17.129 9.71569 17.2921 9.58392 17.4406 9.40059L17.75 9.02246C18.575 9.50371 19.2396 10.171 19.7437 11.0245C20.2479 11.8779 20.5 12.8147 20.5 13.835C20.5 14.8433 20.2536 15.7629 19.7609 16.5939C19.2682 17.4249 18.6208 18.0805 17.8188 18.5608C18.0135 18.2858 18.1655 17.9849 18.2746 17.6581C18.3836 17.3314 18.438 16.9851 18.4375 16.6193C18.4375 16.161 18.3516 15.7283 18.1797 15.3213C18.0078 14.9143 17.7615 14.5506 17.4406 14.2303L15 11.8412L12.5766 14.2303C12.2443 14.5626 11.9922 14.9292 11.8203 15.3303C11.6484 15.7313 11.5625 16.161 11.5625 16.6193C11.5625 16.986 11.617 17.3327 11.7261 17.6595C11.8352 17.9863 11.9869 18.287 12.1813 18.5615C11.3792 18.0803 10.7318 17.4242 10.2391 16.5932C9.74635 15.7623 9.5 14.8428 9.5 13.835ZM15 13.7662L16.4609 15.1928C16.6557 15.3876 16.8047 15.6053 16.9078 15.8459C17.0109 16.0865 17.0625 16.3443 17.0625 16.6193C17.0625 17.1808 16.862 17.6591 16.4609 18.0541C16.0599 18.4492 15.5729 18.647 15 18.6475C14.4271 18.6475 13.9401 18.4497 13.5391 18.0541C13.138 17.6586 12.9375 17.1803 12.9375 16.6193C12.9375 16.3558 12.9891 16.1007 13.0922 15.8541C13.1953 15.6076 13.3443 15.3871 13.5391 15.1928L15 13.7662Z" fill="white"/>
</g>
<defs>
<filter id="filter0_d_4707_4652" x="0.294118" y="0.107019" width="32.9412" height="32.9412" filterUnits="userSpaceOnUse" color-interpolation-filters="sRGB">
<feFlood flood-opacity="0" result="BackgroundImageFix"/>
<feColorMatrix in="SourceAlpha" type="matrix" values="0 0 0 0 0 0 0 0 0 0 0 0 0 0 0 0 0 0 127 0" result="hardAlpha"/>
<feMorphology radius="0.588235" operator="dilate" in="SourceAlpha" result="effect1_dropShadow_4707_4652"/>
<feOffset dx="1.76471" dy="4.11765"/>
<feGaussianBlur stdDeviation="2.94118"/>
<feComposite in2="hardAlpha" operator="out"/>
<feColorMatrix type="matrix" values="0 0 0 0 0.804167 0 0 0 0 0.804167 0 0 0 0 0.804167 0 0 0 0.25 0"/>
<feBlend mode="normal" in2="BackgroundImageFix" result="effect1_dropShadow_4707_4652"/>
<feBlend mode="normal" in="SourceGraphic" in2="effect1_dropShadow_4707_4652" result="shape"/>
</filter>
</defs>
</svg>
